<svg width="512" height="512" viewBox="0 0 512 512" fill="none" xmlns="http://www.w3.org/2000/svg">
<path fill-rule="evenodd" clip-rule="evenodd" d="M256 512L248.021 511.802L240.436 511.535C245.585 511.843 250.774 512 256 512ZM239.87 511.5V297.869C239.87 294.571 239.218 291.305 237.95 288.257L193.274 180.851C190.191 173.439 179.713 174.896 178.125 182.001V423.344C178.125 427.728 174.552 431.282 170.145 431.282H69.4183C112.676 477.31 172.772 507.328 239.87 511.5ZM46.105 402.599C17.0481 361.074 0 310.528 0 256C0 114.615 114.615 0 256 0C397.385 0 512 114.615 512 256C512 310.743 494.817 361.473 465.551 403.09H371.699C367.586 403.09 364.2 399.995 363.766 396.018V124.362C363.766 119.978 360.194 116.424 355.787 116.424H315.358C312.069 116.424 309.117 118.432 307.923 121.481L263.474 235.023C260.835 241.766 251.243 241.766 248.604 235.023L204.155 121.481C202.961 118.432 200.009 116.424 196.72 116.424H156.291C151.884 116.424 148.312 119.978 148.312 124.362V149.499H148.125V394.661C148.125 399.046 144.552 402.599 140.145 402.599H46.105ZM442.119 431.773H363.766V431.788L363.75 431.773H340.525C336.118 431.773 332.546 428.219 332.546 423.835V183.625C331.687 175.715 320.395 173.843 317.225 181.611L273.674 288.326C272.448 291.329 271.818 294.54 271.818 297.782V511.502L271.256 511.553C338.467 507.603 398.708 477.722 442.119 431.773ZM269.128 511.669H267.969L265.974 511.802H263.979L260.921 511.954C263.667 511.902 266.403 511.807 269.128 511.669Z" fill="url(#paint0_linear_13_10)"/>
<defs>
<linearGradient id="paint0_linear_13_10" x1="256" y1="0" x2="256" y2="512" gradientUnits="userSpaceOnUse">
<stop offset="0.09375" stop-color="#F67F7C" stop-opacity="0.9"/>
<stop offset="0.520833" stop-color="#E1BEA7" stop-opacity="0.64"/>
<stop offset="0.697917" stop-color="#8AABB2"/>
<stop offset="1" stop-color="#2588B6" stop-opacity="0.92"/>
</linearGradient>
</defs>
</svg>
