<svg width="385" height="387" viewBox="0 0 385 387" fill="none" xmlns="http://www.w3.org/2000/svg">
<path d="M192.5 387C298.815 387 385 300.367 385 193.5C385 86.6329 298.815 0 192.5 0C86.1852 0 0 86.6329 0 193.5C0 300.367 86.1852 387 192.5 387Z" fill="black"/>
<path d="M111.383 113H133.941V319.988C133.941 323.302 131.255 325.988 127.941 325.988H52L42.5 315L34.5 304.309H105.383C108.697 304.309 111.383 301.622 111.383 298.309V113Z" fill="#F5F5F5"/>
<path d="M273.5 113.371H250.059V320.359C250.059 323.673 252.745 326.359 256.059 326.359H332.5L337 321.5L341.12 316.5L346 310.5L350.075 304.68H279.5C276.186 304.68 273.5 301.993 273.5 298.68V113.371Z" fill="#F5F5F5"/>
<path d="M204.395 386.624L203 386.75H201.5L200 386.85H198.5L195.5 387H192.5L186.5 386.85L180.371 386.633V225.147C180.371 222.654 179.881 220.186 178.927 217.882L145.333 136.698C142.822 130.631 133.789 132.426 133.789 138.992V255.871H111.523V94C111.523 90.6863 114.21 88 117.523 88H147.924C150.398 88 152.617 89.5178 153.515 91.8226L186.938 177.644C188.923 182.741 196.135 182.741 198.12 177.644L231.544 91.8226C232.441 89.5178 234.661 88 237.134 88H267.535C270.849 88 273.535 90.6863 273.535 94V326.371L250.098 304V139.529C250.098 132.94 241.017 131.167 238.538 137.272L205.79 217.934C204.868 220.204 204.395 222.631 204.395 225.081V386.624Z" fill="#F5F5F5"/>
</svg>
