<svg version="1.1" xmlns="http://www.w3.org/2000/svg" xmlns:xlink="http://www.w3.org/1999/xlink" x="0px" y="0px" viewBox="-31 -48 23 23" xml:space="preserve">
  <path d="M-23.5-45.5c2.8,0,5,2.2,5,5c0,1-0.3,2-0.9,2.9l-0.5,0.7l-0.7,0.5c-0.9,0.6-1.9,0.9-2.9,0.9c-2.8,0-5-2.2-5-5
      C-28.5-43.3-26.3-45.5-23.5-45.5L-23.5-45.5z M-23.5-48c-4.1,0-7.5,3.4-7.5,7.5s3.4,7.5,7.5,7.5c1.6,0,3.1-0.5,4.3-1.4l6,6
      c0.2,0.2,0.6,0.4,0.9,0.4s0.6-0.1,0.9-0.4c0.5-0.5,0.5-1.3,0-1.8l-6-6c0.9-1.2,1.4-2.7,1.4-4.3C-16-44.6-19.4-48-23.5-48L-23.5-48
      L-23.5-48z"></path>
</svg>
